<?xml version="1.0" standalone="no"?><!DOCTYPE svg PUBLIC "-//W3C//DTD SVG 20010904//EN" "http://www.w3.org/TR/2001/REC-SVG-20010904/DTD/svg10.dtd"><svg version="1.0" xmlns="http://www.w3.org/2000/svg" preserveAspectRatio="xMidYMid meet" x="0" y="0" width="" viewBox="0 0 10000 10000"><g id="eyes" fill="#000"><path id="left-eye" d="M3475 3626 c-216 -54 -360 -266 -326 -482 29 -188 174 -333 364 -365 227 -38 449 125 489 359 51 300 -231 561 -527 488z" /><path id="right-eye" d="M6375 3929 c-226 -33 -395 -266 -357 -491 61 -354 484 -492 732 -238 168 171 170 427 4 601 -100 105 -232 149 -379 128z" /></g><g id="nose " fill="#f15a25"><path d="M4875 5353 c-33 -5 -1129 -195 -2400 -418 -198 -34 -511 -89 -695 -121 -377 -66 -385 -69 -385 -142 0 -53 32 -88 89 -97 22 -4 194 -33 381 -66 710 -124 1096 -191 1255 -219 91 -16 269 -47 395 -69 497 -87 752 -132 1035 -183 355 -64 481 -70 610 -29 205 64 351 186 440 366 201 409 -56 890 -518 970 -81 14 -143 17 -207 8z" /></g><g id="mouth" fill="#c2272d"><path d="M4920 7020 c-344 -23 -666 -91 -995 -212 -159 -59 -505 -229 -580 -285 -58 -44 -95 -109 -95 -168 1 -117 119 -220 229 -200 20 3 88 35 151 70 367 201 667 305 1065 367 169 26 543 36 711 19 432 -44 849 -174 1195 -372 66 -38 140 -75 163 -81 80 -21 182 27 223 106 24 45 22 132 -3 181 -29 56 -90 99 -282 197 -395 203 -803 325 -1232 367 -155 15 -408 21 -550 11z" /></g></svg>
