<svg xmlns="http://www.w3.org/2000/svg" xmlns:xlink="http://www.w3.org/1999/xlink" id="svg" width="437" height="437" viewBox="0, 0, 437,437">
  <g id="svgg">
    <path id="path0" d="M269.608 20.429 C 263.584 28.374,252.905 42.676,245.462 52.769 C 234.811 67.211,234.706 67.337,232.184 68.527 L 231.034 69.070 146.708 69.192 C 83.884 69.284,62.044 69.377,61.053 69.558 C 54.254 70.804,47.694 74.358,42.295 79.720 C 35.326 86.641,31.880 94.835,31.129 106.270 C 30.786 111.504,30.965 380.956,31.314 383.177 C 33.063 394.320,35.982 400.506,42.612 407.120 C 48.485 412.980,55.464 416.514,63.427 417.664 C 65.619 417.980,226.206 418.102,232.465 417.792 L 235.150 417.659 233.749 415.778 C 231.576 412.860,230.772 411.967,225.286 406.374 C 200.289 380.893,183.843 345.905,180.882 311.912 C 180.702 309.843,180.373 306.740,180.151 305.016 C 178.976 295.885,179.014 289.400,180.318 277.011 C 180.777 272.644,181.218 268.224,181.297 267.189 C 181.939 258.809,185.685 244.197,190.482 231.361 C 194.841 219.697,202.876 204.307,206.545 200.593 C 208.678 198.434,213.032 198.743,224.765 201.883 C 227.753 202.683,246.891 207.472,267.294 212.526 C 305.380 221.960,327.923 227.619,355.904 234.769 C 372.841 239.097,373.794 239.289,378.312 239.289 L 381.191 239.289 381.191 236.174 L 381.191 233.059 378.945 232.112 C 375.459 230.644,372.063 229.609,364.472 227.703 C 360.622 226.736,355.873 225.510,353.918 224.978 C 348.349 223.463,341.337 221.732,328.004 218.582 C 321.223 216.980,311.959 214.674,307.419 213.458 C 298.925 211.183,195.540 185.251,179.174 181.290 C 159.001 176.408,157.028 175.221,156.422 167.607 C 155.971 161.934,157.828 157.894,161.863 155.767 C 165.924 153.626,168.764 153.843,181.505 157.263 C 184.723 158.127,207.106 163.775,231.243 169.815 C 275.030 180.772,358.342 201.707,368.443 204.292 C 375.406 206.074,380.567 207.142,380.674 206.823 C 380.826 206.370,381.594 198.013,381.724 195.402 C 381.995 189.924,381.023 183.393,379.746 182.113 C 377.475 179.840,371.074 177.707,357.889 174.831 C 355.475 174.304,345.836 171.897,336.468 169.483 C 327.100 167.068,303.448 161.101,283.908 156.222 C 254.042 148.764,241.859 145.586,241.407 145.134 C 241.034 144.761,242.828 136.088,245.038 127.586 C 246.782 120.876,250.163 107.457,264.652 49.739 C 268.814 33.156,270.412 26.363,271.362 21.212 C 271.658 19.603,271.937 18.122,271.981 17.921 C 272.141 17.192,271.749 17.606,269.608 20.429 M224.739 220.910 C 207.494 222.294,203.285 247.171,219.084 254.334 C 229.011 258.835,239.487 254.346,243.871 243.713 L 244.618 241.902 244.606 238.662 C 244.566 227.691,235.968 220.008,224.739 220.910 M315.863 240.321 C 311.682 240.984,306.868 244.416,304.513 248.415 C 297.757 259.884,306.497 275.538,319.645 275.516 C 327.547 275.503,335.502 269.138,336.800 261.789 C 339.234 248.006,329.614 238.142,315.863 240.321 M252.247 280.050 C 242.195 281.281,234.372 284.890,222.384 293.828 C 215.567 298.911,209.355 303.406,204.180 307.001 C 190.007 316.847,190.129 316.417,200.522 319.850 C 208.056 322.338,210.603 323.281,222.257 327.900 C 233.269 332.264,237.385 333.780,242.006 335.175 C 263.185 341.567,276.464 334.848,278.893 316.510 C 279.557 311.505,279.298 302.334,278.374 298.113 C 275.657 285.692,265.201 278.464,252.247 280.050 " stroke="none" fill="#000000" fill-rule="evenodd" />
  </g>
</svg>
